<svg width="376" height="376" viewBox="0 0 376 376" fill="none" xmlns="http://www.w3.org/2000/svg">
<g clip-path="url(#clip0_562_15)">
<rect width="376" height="376" fill="white"/>
<rect width="376" height="376" fill="#E0AE4B"/>
<path d="M60.2619 174.923L59.749 164.214L78.8368 144H89.0929L71.8854 162.611L66.7574 168.108L60.2619 174.923ZM52 184.085V144H61.1735V184.085H52ZM79.2926 184.085L65.105 166.619L71.1447 160.034L90.0615 184.085H79.2926Z" fill="white"/>
<path d="M92.2271 184.085L110.004 144H119.121L136.955 184.085H127.269L112.682 148.696H116.329L101.686 184.085H92.2271ZM101.116 175.495L103.566 168.452H124.078L126.585 175.495H101.116Z" fill="white"/>
<path d="M153.687 184.085V167.707L155.795 173.319L138.246 144H148.046L161.493 166.505H155.852L169.356 144H178.416L160.866 173.319L162.918 167.707V184.085H153.687Z" fill="white"/>
<path d="M179.715 184.085L197.493 144H206.609L224.443 184.085H214.757L200.171 148.696H203.817L189.174 184.085H179.715ZM188.604 175.495L191.054 168.452H211.566L214.073 175.495H188.604Z" fill="white"/>
<path d="M233.71 184.085V144H241.345L264.877 172.861H261.173V144H270.29V184.085H262.711L239.122 155.224H242.826V184.085H233.71Z" fill="white"/>
<path d="M279.612 184.085L297.389 144H306.506L324.34 184.085H314.654L300.067 148.696H303.714L289.071 184.085H279.612ZM288.501 175.495L290.951 168.452H311.463L313.97 175.495H288.501Z" fill="white"/>
<path d="M51.7848 223V199.2H61.0668C63.1522 199.2 64.9315 199.529 66.4048 200.186C67.8782 200.843 69.0115 201.795 69.8048 203.042C70.5982 204.289 70.9948 205.773 70.9948 207.496C70.9948 209.219 70.5982 210.703 69.8048 211.95C69.0115 213.174 67.8782 214.126 66.4048 214.806C64.9315 215.463 63.1522 215.792 61.0668 215.792H53.6548L55.1848 214.194V223H51.7848ZM55.1848 214.534L53.6548 212.834H60.9648C63.1408 212.834 64.7842 212.369 65.8948 211.44C67.0282 210.511 67.5948 209.196 67.5948 207.496C67.5948 205.796 67.0282 204.481 65.8948 203.552C64.7842 202.623 63.1408 202.158 60.9648 202.158H53.6548L55.1848 200.458V214.534ZM93.0579 199.2H96.4579V223H93.0579V199.2ZM79.3899 223H75.9899V199.2H79.3899V223ZM93.3639 212.392H79.0499V209.434H93.3639V212.392ZM114.326 223.272C112.512 223.272 110.824 222.966 109.26 222.354C107.718 221.742 106.381 220.892 105.248 219.804C104.114 218.693 103.23 217.401 102.596 215.928C101.961 214.455 101.644 212.845 101.644 211.1C101.644 209.355 101.961 207.745 102.596 206.272C103.23 204.799 104.114 203.518 105.248 202.43C106.381 201.319 107.718 200.458 109.26 199.846C110.801 199.234 112.49 198.928 114.326 198.928C116.139 198.928 117.805 199.234 119.324 199.846C120.865 200.435 122.202 201.285 123.336 202.396C124.492 203.484 125.376 204.765 125.988 206.238C126.622 207.711 126.94 209.332 126.94 211.1C126.94 212.868 126.622 214.489 125.988 215.962C125.376 217.435 124.492 218.727 123.336 219.838C122.202 220.926 120.865 221.776 119.324 222.388C117.805 222.977 116.139 223.272 114.326 223.272ZM114.326 220.246C115.64 220.246 116.853 220.019 117.964 219.566C119.097 219.113 120.072 218.478 120.888 217.662C121.726 216.823 122.372 215.849 122.826 214.738C123.302 213.627 123.54 212.415 123.54 211.1C123.54 209.785 123.302 208.573 122.826 207.462C122.372 206.351 121.726 205.388 120.888 204.572C120.072 203.733 119.097 203.087 117.964 202.634C116.853 202.181 115.64 201.954 114.326 201.954C112.988 201.954 111.753 202.181 110.62 202.634C109.509 203.087 108.534 203.733 107.696 204.572C106.857 205.388 106.2 206.351 105.724 207.462C105.27 208.573 105.044 209.785 105.044 211.1C105.044 212.415 105.27 213.627 105.724 214.738C106.2 215.849 106.857 216.823 107.696 217.662C108.534 218.478 109.509 219.113 110.62 219.566C111.753 220.019 112.988 220.246 114.326 220.246ZM136.53 223V202.158H128.37V199.2H148.056V202.158H139.896V223H136.53ZM162.171 223.272C160.358 223.272 158.669 222.966 157.105 222.354C155.564 221.742 154.227 220.892 153.093 219.804C151.96 218.693 151.076 217.401 150.441 215.928C149.807 214.455 149.489 212.845 149.489 211.1C149.489 209.355 149.807 207.745 150.441 206.272C151.076 204.799 151.96 203.518 153.093 202.43C154.227 201.319 155.564 200.458 157.105 199.846C158.647 199.234 160.335 198.928 162.171 198.928C163.985 198.928 165.651 199.234 167.169 199.846C168.711 200.435 170.048 201.285 171.181 202.396C172.337 203.484 173.221 204.765 173.833 206.238C174.468 207.711 174.785 209.332 174.785 211.1C174.785 212.868 174.468 214.489 173.833 215.962C173.221 217.435 172.337 218.727 171.181 219.838C170.048 220.926 168.711 221.776 167.169 222.388C165.651 222.977 163.985 223.272 162.171 223.272ZM162.171 220.246C163.486 220.246 164.699 220.019 165.809 219.566C166.943 219.113 167.917 218.478 168.733 217.662C169.572 216.823 170.218 215.849 170.671 214.738C171.147 213.627 171.385 212.415 171.385 211.1C171.385 209.785 171.147 208.573 170.671 207.462C170.218 206.351 169.572 205.388 168.733 204.572C167.917 203.733 166.943 203.087 165.809 202.634C164.699 202.181 163.486 201.954 162.171 201.954C160.834 201.954 159.599 202.181 158.465 202.634C157.355 203.087 156.38 203.733 155.541 204.572C154.703 205.388 154.045 206.351 153.569 207.462C153.116 208.573 152.889 209.785 152.889 211.1C152.889 212.415 153.116 213.627 153.569 214.738C154.045 215.849 154.703 216.823 155.541 217.662C156.38 218.478 157.355 219.113 158.465 219.566C159.599 220.019 160.834 220.246 162.171 220.246ZM206.181 199.2H209.581V223H206.181V199.2ZM192.513 223H189.113V199.2H192.513V223ZM206.487 212.392H192.173V209.434H206.487V212.392ZM219.799 209.468H232.039V212.358H219.799V209.468ZM220.105 220.042H233.977V223H216.705V199.2H233.501V202.158H220.105V220.042ZM239.482 223V199.2H242.882V220.042H255.768V223H239.482ZM259.67 223V199.2H268.952C271.037 199.2 272.816 199.529 274.29 200.186C275.763 200.843 276.896 201.795 277.69 203.042C278.483 204.289 278.88 205.773 278.88 207.496C278.88 209.219 278.483 210.703 277.69 211.95C276.896 213.174 275.763 214.126 274.29 214.806C272.816 215.463 271.037 215.792 268.952 215.792H261.54L263.07 214.194V223H259.67ZM263.07 214.534L261.54 212.834H268.85C271.026 212.834 272.669 212.369 273.78 211.44C274.913 210.511 275.48 209.196 275.48 207.496C275.48 205.796 274.913 204.481 273.78 203.552C272.669 202.623 271.026 202.158 268.85 202.158H261.54L263.07 200.458V214.534ZM286.969 209.468H299.209V212.358H286.969V209.468ZM287.275 220.042H301.147V223H283.875V199.2H300.671V202.158H287.275V220.042ZM306.652 223V199.2H315.934C318.019 199.2 319.799 199.529 321.272 200.186C322.745 200.843 323.879 201.795 324.672 203.042C325.465 204.289 325.862 205.773 325.862 207.496C325.862 209.219 325.465 210.703 324.672 211.95C323.879 213.174 322.745 214.115 321.272 214.772C319.799 215.429 318.019 215.758 315.934 215.758H308.522L310.052 214.194V223H306.652ZM322.564 223L316.512 214.364H320.15L326.27 223H322.564ZM310.052 214.534L308.522 212.868H315.832C318.008 212.868 319.651 212.403 320.762 211.474C321.895 210.522 322.462 209.196 322.462 207.496C322.462 205.796 321.895 204.481 320.762 203.552C319.651 202.623 318.008 202.158 315.832 202.158H308.522L310.052 200.458V214.534Z" fill="white"/>
</g>
<defs>
<clipPath id="clip0_562_15">
<rect width="376" height="376" fill="white"/>
</clipPath>
</defs>
</svg>
