<svg width="1024" height="1024" viewBox="0 0 1024 1024" fill="none" xmlns="http://www.w3.org/2000/svg">
<g clip-path="url(#clip0_293_2511)">
<rect width="1024" height="1024" fill="white"/>
<path d="M686.859 139.374C694.293 137.614 701.743 142.216 703.502 149.649L845.626 750.406C847.384 757.839 842.787 765.291 835.354 767.051L336.141 885.214C328.707 886.973 321.257 882.371 319.498 874.938L177.374 274.181C175.616 266.748 180.213 259.296 187.646 257.536L686.859 139.374Z" stroke="black" stroke-width="10"/>
<path d="M241.071 324.738C240.396 321.897 242.161 319.048 245.013 318.376L663.293 219.766C666.145 219.094 669.004 220.852 669.679 223.694L766.216 630.119C766.89 632.96 765.126 635.809 762.274 636.481L343.993 735.091C341.141 735.763 338.282 734.005 337.607 731.164L241.071 324.738Z" fill="black"/>
</g>
<defs>
<clipPath id="clip0_293_2511">
<rect width="1024" height="1024" fill="white"/>
</clipPath>
</defs>
</svg>
